<svg width="471" height="97" viewBox="0 0 471 97" fill="none" xmlns="http://www.w3.org/2000/svg">
<g clip-path="url(#clip0_356_2767)">
<rect width="96.208" height="96.208" rx="20.7703" fill="#0B68F7"/>
<path d="M47.338 21.9766V21.9775H47.339L47.3399 21.9766L47.3409 21.9775C47.3429 21.9776 47.3448 21.9765 47.3468 21.9766L47.3458 21.9775C48.0663 21.9888 48.7638 22.2315 49.3351 22.6709C49.9078 23.1115 50.3235 23.7251 50.5186 24.4209L60.4835 59.8545L65.3839 46.791L65.4825 46.5557C65.7324 46.0175 66.1213 45.5537 66.6114 45.2139C67.1716 44.8255 67.837 44.6174 68.5186 44.6172H146.024C146.912 44.6172 147.764 44.9697 148.392 45.5977C149.02 46.2258 149.373 47.0785 149.373 47.9668C149.373 48.8549 149.02 49.7069 148.392 50.335C147.764 50.963 146.912 51.3154 146.024 51.3154H70.8399L63.1632 71.7812L63.1642 71.7822C62.9164 72.4433 62.4656 73.0095 61.877 73.3994C61.2886 73.7892 60.592 73.9837 59.8868 73.9541C59.1815 73.9244 58.503 73.6723 57.9493 73.2344C57.4648 72.8511 57.0973 72.3421 56.8849 71.7656L56.8028 71.5146L47.1251 37.0957L43.4132 48.9648C43.2005 49.6459 42.7759 50.2412 42.2013 50.6641C41.6983 51.0342 41.1034 51.255 40.4845 51.3047L40.2179 51.3154H-31.787C-32.6752 51.3154 -33.5271 50.9629 -34.1552 50.335C-34.7832 49.7069 -35.1365 48.8549 -35.1366 47.9668C-35.1366 47.0785 -34.7833 46.2258 -34.1552 45.5977C-33.5271 44.9697 -32.6752 44.6172 -31.787 44.6172H37.756L44.0948 24.3271L44.1856 24.0732C44.4209 23.4896 44.8164 22.9822 45.3292 22.6113C45.9115 22.1904 46.6139 21.9689 47.3321 21.9775L47.3331 21.9766H47.338Z" fill="white" stroke="white" stroke-width="1.03851"/>
</g>
<path d="M135.304 75.8656C132.055 75.8656 129.186 75.0786 126.698 73.5047C124.261 71.9308 122.357 69.6968 120.986 66.8028C119.616 63.8581 118.93 60.4056 118.93 56.4454C118.93 52.4344 119.616 49.0073 120.986 46.1641C122.357 43.2701 124.261 41.0362 126.698 39.4622C129.186 37.8883 132.055 37.1014 135.304 37.1014C138.401 37.1014 141.092 37.8629 143.377 39.3861C145.712 40.9092 147.286 42.9147 148.098 45.4025H147.261V25.6016C147.261 24.0276 147.667 22.8345 148.479 22.0222C149.292 21.2098 150.459 20.8036 151.983 20.8036C153.506 20.8036 154.673 21.2098 155.486 22.0222C156.349 22.8345 156.78 24.0276 156.78 25.6016V70.8392C156.78 72.4131 156.374 73.6316 155.562 74.4947C154.75 75.3071 153.582 75.7133 152.059 75.7133C150.536 75.7133 149.368 75.3071 148.555 74.4947C147.743 73.6316 147.337 72.4131 147.337 70.8392V64.8989L148.175 67.1836C147.413 69.8237 145.865 71.9308 143.529 73.5047C141.194 75.0786 138.452 75.8656 135.304 75.8656ZM137.97 68.6306C139.848 68.6306 141.498 68.1737 142.92 67.2598C144.341 66.3459 145.433 65.0004 146.195 63.2234C147.007 61.3956 147.413 59.1363 147.413 56.4454C147.413 52.3837 146.55 49.3627 144.824 47.3826C143.097 45.3518 140.813 44.3363 137.97 44.3363C136.091 44.3363 134.441 44.7933 133.019 45.7072C131.598 46.5703 130.481 47.9157 129.668 49.7435C128.907 51.5205 128.526 53.7545 128.526 56.4454C128.526 60.4564 129.389 63.5027 131.115 65.5843C132.842 67.6152 135.126 68.6306 137.97 68.6306ZM171.525 75.7133C169.951 75.7133 168.733 75.3071 167.87 74.4947C167.057 73.6316 166.651 72.4131 166.651 70.8392V42.0516C166.651 40.4777 167.057 39.2845 167.87 38.4722C168.682 37.6598 169.824 37.2537 171.297 37.2537C172.769 37.2537 173.912 37.6598 174.724 38.4722C175.536 39.2845 175.942 40.4777 175.942 42.0516V46.8495H175.181C175.892 43.8032 177.288 41.4931 179.37 39.9192C181.451 38.3453 184.218 37.406 187.671 37.1014C188.737 36.9998 189.575 37.2791 190.184 37.9391C190.844 38.5484 191.225 39.513 191.326 40.8331C191.428 42.1024 191.123 43.1432 190.412 43.9555C189.752 44.7171 188.737 45.1741 187.366 45.3264L185.691 45.4787C182.594 45.7833 180.258 46.748 178.684 48.3727C177.11 49.9466 176.323 52.1806 176.323 55.0746V70.8392C176.323 72.4131 175.917 73.6316 175.105 74.4947C174.292 75.3071 173.099 75.7133 171.525 75.7133ZM199.334 75.4848C197.607 75.4848 196.211 74.9517 195.145 73.8855C194.129 72.8193 193.622 71.4484 193.622 69.773C193.622 68.1483 194.129 66.8282 195.145 65.8128C196.211 64.7466 197.607 64.2135 199.334 64.2135C201.111 64.2135 202.481 64.7466 203.446 65.8128C204.461 66.8282 204.969 68.1483 204.969 69.773C204.969 71.4484 204.461 72.8193 203.446 73.8855C202.481 74.9517 201.111 75.4848 199.334 75.4848ZM225.693 75.8656C223.002 75.8656 220.59 75.3579 218.458 74.3424C216.376 73.2762 214.726 71.8546 213.508 70.0776C212.34 68.3006 211.756 66.2951 211.756 64.0612C211.756 61.3195 212.467 59.1617 213.889 57.5878C215.31 55.9631 217.62 54.7953 220.819 54.0845C224.017 53.3737 228.308 53.0183 233.69 53.0183H237.497V58.5016H233.766C230.618 58.5016 228.105 58.654 226.226 58.9586C224.348 59.2632 223.002 59.7963 222.19 60.5579C221.428 61.2687 221.047 62.2841 221.047 63.6042C221.047 65.2797 221.631 66.6505 222.799 67.7167C223.967 68.7829 225.591 69.316 227.673 69.316C229.349 69.316 230.821 68.9352 232.09 68.1737C233.41 67.3613 234.451 66.2697 235.213 64.8989C235.974 63.528 236.355 61.9541 236.355 60.1771V51.419C236.355 48.8804 235.797 47.0526 234.68 45.9356C233.563 44.8187 231.684 44.2602 229.044 44.2602C227.572 44.2602 225.972 44.4379 224.246 44.7933C222.571 45.1487 220.793 45.7579 218.915 46.6211C217.95 47.078 217.087 47.2049 216.326 47.0018C215.615 46.7988 215.056 46.3926 214.65 45.7833C214.244 45.1233 214.041 44.4125 214.041 43.6509C214.041 42.8893 214.244 42.1531 214.65 41.4423C215.056 40.6808 215.742 40.1223 216.706 39.7669C219.042 38.8022 221.276 38.1168 223.408 37.7106C225.591 37.3044 227.572 37.1014 229.349 37.1014C233.004 37.1014 236 37.6598 238.335 38.7768C240.721 39.8938 242.498 41.5947 243.666 43.8794C244.834 46.1133 245.418 49.0073 245.418 52.5614V70.8392C245.418 72.4131 245.037 73.6316 244.275 74.4947C243.514 75.3071 242.422 75.7133 241.001 75.7133C239.579 75.7133 238.462 75.3071 237.65 74.4947C236.888 73.6316 236.507 72.4131 236.507 70.8392V67.1836H237.117C236.761 68.9606 236.05 70.5092 234.984 71.8292C233.969 73.0985 232.674 74.0886 231.1 74.7994C229.526 75.5102 227.724 75.8656 225.693 75.8656ZM272.444 89.5739C269.703 89.5739 267.037 89.3201 264.448 88.8124C261.909 88.3047 259.599 87.5177 257.517 86.4515C256.553 85.9438 255.893 85.3345 255.537 84.6237C255.233 83.9129 255.131 83.1767 255.233 82.4151C255.385 81.7043 255.69 81.0697 256.146 80.5112C256.654 79.9527 257.263 79.5719 257.974 79.3688C258.685 79.1657 259.421 79.2673 260.183 79.6735C262.417 80.7904 264.524 81.5012 266.504 81.8059C268.535 82.1613 270.261 82.339 271.683 82.339C275.084 82.339 277.623 81.5012 279.298 79.8258C281.025 78.2011 281.888 75.764 281.888 72.5146V65.6605H282.573C281.812 68.2498 280.212 70.3315 277.775 71.9054C275.389 73.4285 272.673 74.1901 269.626 74.1901C266.275 74.1901 263.356 73.4285 260.868 71.9054C258.38 70.3315 256.451 68.1483 255.08 65.3558C253.709 62.5634 253.024 59.314 253.024 55.6077C253.024 52.8152 253.405 50.302 254.166 48.0681C254.979 45.7833 256.096 43.8286 257.517 42.2039C258.99 40.5792 260.741 39.3353 262.772 38.4722C264.854 37.5583 267.139 37.1014 269.626 37.1014C272.774 37.1014 275.516 37.8883 277.851 39.4622C280.238 40.9854 281.786 43.0163 282.497 45.5549L281.735 47.4588V42.0516C281.735 40.4777 282.142 39.2845 282.954 38.4722C283.817 37.6598 284.985 37.2537 286.457 37.2537C287.98 37.2537 289.148 37.6598 289.96 38.4722C290.773 39.2845 291.179 40.4777 291.179 42.0516V71.3723C291.179 77.4141 289.58 81.9582 286.381 85.0045C283.182 88.0508 278.537 89.5739 272.444 89.5739ZM272.216 66.9551C274.196 66.9551 275.897 66.4982 277.318 65.5843C278.74 64.6704 279.832 63.3757 280.593 61.7003C281.405 59.974 281.812 57.9432 281.812 55.6077C281.812 52.1044 280.948 49.3627 279.222 47.3826C277.496 45.3518 275.161 44.3363 272.216 44.3363C270.236 44.3363 268.535 44.7933 267.113 45.7072C265.692 46.6211 264.575 47.9157 263.762 49.5912C263.001 51.2667 262.62 53.2722 262.62 55.6077C262.62 59.1109 263.483 61.878 265.209 63.9088C266.935 65.9397 269.271 66.9551 272.216 66.9551ZM319.397 75.8656C315.183 75.8656 311.552 75.0786 308.506 73.5047C305.46 71.9308 303.099 69.6968 301.423 66.8028C299.799 63.9088 298.986 60.4817 298.986 56.5215C298.986 52.6629 299.773 49.2866 301.347 46.3926C302.972 43.4986 305.18 41.2393 307.973 39.6146C310.816 37.9391 314.04 37.1014 317.645 37.1014C320.285 37.1014 322.646 37.5329 324.728 38.396C326.86 39.2592 328.662 40.5031 330.135 42.1278C331.658 43.7525 332.8 45.7326 333.562 48.0681C334.374 50.3528 334.78 52.9421 334.78 55.8361C334.78 56.75 334.45 57.4608 333.79 57.9685C333.181 58.4255 332.293 58.654 331.125 58.654H306.678V53.1706H328.079L326.86 54.313C326.86 51.9775 326.505 50.0228 325.794 48.4488C325.134 46.8749 324.144 45.6818 322.824 44.8694C321.554 44.0063 319.955 43.5748 318.026 43.5748C315.893 43.5748 314.066 44.0825 312.542 45.0979C311.07 46.0626 309.928 47.4588 309.115 49.2866C308.354 51.0636 307.973 53.196 307.973 55.6838V56.2169C307.973 60.3802 308.938 63.5027 310.867 65.5843C312.847 67.6152 315.741 68.6306 319.549 68.6306C320.869 68.6306 322.341 68.4783 323.966 68.1737C325.641 67.8183 327.215 67.2344 328.688 66.422C329.754 65.8128 330.693 65.5589 331.506 65.6605C332.318 65.7112 332.953 65.9905 333.41 66.4982C333.917 67.0059 334.222 67.6406 334.323 68.4021C334.425 69.1129 334.273 69.8491 333.867 70.6107C333.511 71.3723 332.876 72.0323 331.963 72.5908C330.186 73.7078 328.129 74.5455 325.794 75.104C323.509 75.6117 321.377 75.8656 319.397 75.8656ZM347.041 75.7133C345.518 75.7133 344.35 75.3071 343.538 74.4947C342.726 73.6316 342.319 72.4131 342.319 70.8392V42.0516C342.319 40.4777 342.726 39.2845 343.538 38.4722C344.35 37.6598 345.493 37.2537 346.965 37.2537C348.437 37.2537 349.58 37.6598 350.392 38.4722C351.204 39.2845 351.611 40.4777 351.611 42.0516V47.2303L350.773 45.3264C351.89 42.6355 353.616 40.6046 355.952 39.2338C358.338 37.8122 361.029 37.1014 364.024 37.1014C367.02 37.1014 369.482 37.6598 371.412 38.7768C373.341 39.8938 374.788 41.5947 375.753 43.8794C376.717 46.1133 377.2 48.9566 377.2 52.409V70.8392C377.2 72.4131 376.793 73.6316 375.981 74.4947C375.169 75.3071 374.001 75.7133 372.478 75.7133C370.955 75.7133 369.762 75.3071 368.898 74.4947C368.086 73.6316 367.68 72.4131 367.68 70.8392V52.866C367.68 49.972 367.121 47.865 366.004 46.5449C364.938 45.2248 363.263 44.5648 360.978 44.5648C358.186 44.5648 355.952 45.4533 354.276 47.2303C352.651 48.9566 351.839 51.2667 351.839 54.1607V70.8392C351.839 74.0886 350.24 75.7133 347.041 75.7133ZM401.186 75.8656C397.937 75.8656 395.068 75.0786 392.58 73.5047C390.143 71.9308 388.239 69.6968 386.869 66.8028C385.498 63.8581 384.812 60.4056 384.812 56.4454C384.812 52.4344 385.498 49.0073 386.869 46.1641C388.239 43.2701 390.143 41.0362 392.58 39.4622C395.068 37.8883 397.937 37.1014 401.186 37.1014C404.283 37.1014 406.974 37.8629 409.259 39.3861C411.594 40.9092 413.168 42.9147 413.981 45.4025H413.143V25.6016C413.143 24.0276 413.549 22.8345 414.362 22.0222C415.174 21.2098 416.342 20.8036 417.865 20.8036C419.388 20.8036 420.556 21.2098 421.368 22.0222C422.231 22.8345 422.663 24.0276 422.663 25.6016V70.8392C422.663 72.4131 422.257 73.6316 421.444 74.4947C420.632 75.3071 419.464 75.7133 417.941 75.7133C416.418 75.7133 415.25 75.3071 414.438 74.4947C413.625 73.6316 413.219 72.4131 413.219 70.8392V64.8989L414.057 67.1836C413.295 69.8237 411.747 71.9308 409.411 73.5047C407.076 75.0786 404.334 75.8656 401.186 75.8656ZM403.852 68.6306C405.73 68.6306 407.38 68.1737 408.802 67.2598C410.224 66.3459 411.315 65.0004 412.077 63.2234C412.889 61.3956 413.295 59.1363 413.295 56.4454C413.295 52.3837 412.432 49.3627 410.706 47.3826C408.98 45.3518 406.695 44.3363 403.852 44.3363C401.973 44.3363 400.323 44.7933 398.902 45.7072C397.48 46.5703 396.363 47.9157 395.551 49.7435C394.789 51.5205 394.408 53.7545 394.408 56.4454C394.408 60.4564 395.271 63.5027 396.998 65.5843C398.724 67.6152 401.009 68.6306 403.852 68.6306ZM444.795 75.8656C442.104 75.8656 439.692 75.3579 437.56 74.3424C435.478 73.2762 433.828 71.8546 432.61 70.0776C431.442 68.3006 430.858 66.2951 430.858 64.0612C430.858 61.3195 431.569 59.1617 432.99 57.5878C434.412 55.9631 436.722 54.7953 439.921 54.0845C443.119 53.3737 447.41 53.0183 452.791 53.0183H456.599V58.5016H452.868C449.72 58.5016 447.206 58.654 445.328 58.9586C443.449 59.2632 442.104 59.7963 441.292 60.5579C440.53 61.2687 440.149 62.2841 440.149 63.6042C440.149 65.2797 440.733 66.6505 441.901 67.7167C443.069 68.7829 444.693 69.316 446.775 69.316C448.45 69.316 449.923 68.9352 451.192 68.1737C452.512 67.3613 453.553 66.2697 454.315 64.8989C455.076 63.528 455.457 61.9541 455.457 60.1771V51.419C455.457 48.8804 454.898 47.0526 453.781 45.9356C452.664 44.8187 450.786 44.2602 448.146 44.2602C446.673 44.2602 445.074 44.4379 443.348 44.7933C441.672 45.1487 439.895 45.7579 438.017 46.6211C437.052 47.078 436.189 47.2049 435.427 47.0018C434.717 46.7988 434.158 46.3926 433.752 45.7833C433.346 45.1233 433.143 44.4125 433.143 43.6509C433.143 42.8893 433.346 42.1531 433.752 41.4423C434.158 40.6808 434.844 40.1223 435.808 39.7669C438.144 38.8022 440.378 38.1168 442.51 37.7106C444.693 37.3044 446.673 37.1014 448.45 37.1014C452.106 37.1014 455.101 37.6598 457.437 38.7768C459.823 39.8938 461.6 41.5947 462.768 43.8794C463.936 46.1133 464.52 49.0073 464.52 52.5614V70.8392C464.52 72.4131 464.139 73.6316 463.377 74.4947C462.616 75.3071 461.524 75.7133 460.102 75.7133C458.681 75.7133 457.564 75.3071 456.752 74.4947C455.99 73.6316 455.609 72.4131 455.609 70.8392V67.1836H456.218C455.863 68.9606 455.152 70.5092 454.086 71.8292C453.071 73.0985 451.776 74.0886 450.202 74.7994C448.628 75.5102 446.826 75.8656 444.795 75.8656Z" fill="white"/>
<defs>
<clipPath id="clip0_356_2767">
<rect width="96.208" height="96.208" rx="20.7703" fill="white"/>
</clipPath>
</defs>
</svg>
